SplineFontDB: 3.2
FontName: Vertical4BitsSquare
FullName: Vertical4BitsSquare
FamilyName: Vertical4BitsSquare
Weight: Regular
Copyright: Copyright (c) 2025, https://github.com/EloiStree
UComments: "2025-8-1: Created with FontForge (http://fontforge.org)"
Version: 001.000
ItalicAngle: 0
UnderlinePosition: -102
UnderlineWidth: 51
Ascent: 819
Descent: 205
InvalidEm: 0
LayerCount: 2
Layer: 0 0 "Back" 1
Layer: 1 0 "Fore" 0
XUID: [1021 438 763870636 10010]
StyleMap: 0x0000
FSType: 0
OS2Version: 0
OS2_WeightWidthSlopeOnly: 0
OS2_UseTypoMetrics: 1
CreationTime: 1753999281
ModificationTime: 1754362508
OS2TypoAscent: 0
OS2TypoAOffset: 1
OS2TypoDescent: 0
OS2TypoDOffset: 1
OS2TypoLinegap: 92
OS2WinAscent: 0
OS2WinAOffset: 1
OS2WinDescent: 0
OS2WinDOffset: 1
HheadAscent: 0
HheadAOffset: 1
HheadDescent: 0
HheadDOffset: 1
MarkAttachClasses: 1
DEI: 91125
Encoding: ISO8859-1
UnicodeInterp: none
NameList: AGL For New Fonts
DisplaySize: -48
AntiAlias: 1
FitToEm: 0
WinInfo: 0 39 15
BeginPrivate: 0
EndPrivate
BeginChars: 256 256

StartChar: A
Encoding: 65 65 0
Width: 236
Flags: HW
LayerCount: 2
Fore
SplineSet
172 -205 m 1
 56 -205 l 1
 56 -146 l 1
 172 -146 l 1
 172 -205 l 1
EndSplineSet
EndChar

StartChar: B
Encoding: 66 66 1
Width: 236
Flags: HW
LayerCount: 2
Fore
SplineSet
235 584 m 5
 0 584 l 5
 0 819 l 5
 235 819 l 5
 235 584 l 5
EndSplineSet
Validated: 1
EndChar

StartChar: C
Encoding: 67 67 2
Width: 236
Flags: HW
LayerCount: 2
Fore
SplineSet
235 342 m 5
 0 342 l 5
 0 578 l 5
 235 578 l 5
 235 342 l 5
EndSplineSet
Validated: 1
EndChar

StartChar: D
Encoding: 68 68 3
Width: 236
Flags: HW
LayerCount: 2
Fore
SplineSet
235 342 m 5
 0 342 l 5
 0 578 l 5
 235 578 l 5
 235 342 l 5
235 584 m 5
 0 584 l 5
 0 819 l 5
 235 819 l 5
 235 584 l 5
EndSplineSet
Validated: 1
EndChar

StartChar: E
Encoding: 69 69 4
Width: 236
Flags: HW
LayerCount: 2
Fore
SplineSet
235 101 m 5
 0 101 l 5
 0 336 l 5
 235 336 l 5
 235 101 l 5
EndSplineSet
Validated: 1
EndChar

StartChar: F
Encoding: 70 70 5
Width: 236
Flags: HW
LayerCount: 2
Fore
SplineSet
235 101 m 5
 0 101 l 5
 0 336 l 5
 235 336 l 5
 235 101 l 5
235 584 m 1
 0 584 l 1
 0 819 l 1
 235 819 l 1
 235 584 l 1
EndSplineSet
Validated: 1
EndChar

StartChar: G
Encoding: 71 71 6
Width: 236
Flags: HW
LayerCount: 2
Fore
SplineSet
235 101 m 5
 0 101 l 5
 0 336 l 5
 235 336 l 5
 235 101 l 5
235 342 m 1
 0 342 l 1
 0 578 l 1
 235 578 l 1
 235 342 l 1
EndSplineSet
Validated: 1
EndChar

StartChar: H
Encoding: 72 72 7
Width: 236
Flags: HW
LayerCount: 2
Fore
SplineSet
235 101 m 5
 0 101 l 5
 0 336 l 5
 235 336 l 5
 235 101 l 5
235 342 m 1
 0 342 l 1
 0 578 l 1
 235 578 l 1
 235 342 l 1
235 584 m 1
 0 584 l 1
 0 819 l 1
 235 819 l 1
 235 584 l 1
EndSplineSet
Validated: 1
EndChar

StartChar: I
Encoding: 73 73 8
Width: 236
Flags: HW
LayerCount: 2
Fore
SplineSet
235 -140 m 5
 0 -140 l 5
 0 95 l 5
 235 95 l 5
 235 -140 l 5
EndSplineSet
Validated: 1
EndChar

StartChar: J
Encoding: 74 74 9
Width: 236
Flags: HW
LayerCount: 2
Fore
SplineSet
235 -140 m 5
 0 -140 l 5
 0 95 l 5
 235 95 l 5
 235 -140 l 5
235 584 m 1
 0 584 l 1
 0 819 l 1
 235 819 l 1
 235 584 l 1
EndSplineSet
Validated: 1
EndChar

StartChar: K
Encoding: 75 75 10
Width: 236
Flags: HW
LayerCount: 2
Fore
SplineSet
235 -140 m 5
 0 -140 l 5
 0 95 l 5
 235 95 l 5
 235 -140 l 5
235 342 m 1
 0 342 l 1
 0 578 l 1
 235 578 l 1
 235 342 l 1
EndSplineSet
Validated: 1
EndChar

StartChar: L
Encoding: 76 76 11
Width: 236
Flags: HW
LayerCount: 2
Fore
SplineSet
235 -140 m 5
 0 -140 l 5
 0 95 l 5
 235 95 l 5
 235 -140 l 5
235 342 m 1
 0 342 l 1
 0 578 l 1
 235 578 l 1
 235 342 l 1
235 584 m 1
 0 584 l 1
 0 819 l 1
 235 819 l 1
 235 584 l 1
EndSplineSet
Validated: 1
EndChar

StartChar: M
Encoding: 77 77 12
Width: 236
Flags: HW
LayerCount: 2
Fore
SplineSet
235 -140 m 5
 0 -140 l 5
 0 95 l 5
 235 95 l 5
 235 -140 l 5
235 101 m 1
 0 101 l 1
 0 336 l 1
 235 336 l 1
 235 101 l 1
EndSplineSet
Validated: 1
EndChar

StartChar: N
Encoding: 78 78 13
Width: 236
Flags: HW
LayerCount: 2
Fore
SplineSet
235 -140 m 5
 0 -140 l 5
 0 95 l 5
 235 95 l 5
 235 -140 l 5
235 101 m 1
 0 101 l 1
 0 336 l 1
 235 336 l 1
 235 101 l 1
235 584 m 1
 0 584 l 1
 0 819 l 1
 235 819 l 1
 235 584 l 1
EndSplineSet
Validated: 1
EndChar

StartChar: O
Encoding: 79 79 14
Width: 236
Flags: HW
LayerCount: 2
Fore
SplineSet
235 -140 m 5
 0 -140 l 5
 0 95 l 5
 235 95 l 5
 235 -140 l 5
235 101 m 1
 0 101 l 1
 0 336 l 1
 235 336 l 1
 235 101 l 1
235 342 m 1
 0 342 l 1
 0 578 l 1
 235 578 l 1
 235 342 l 1
EndSplineSet
Validated: 1
EndChar

StartChar: P
Encoding: 80 80 15
Width: 236
Flags: HW
LayerCount: 2
Fore
SplineSet
235 -140 m 5
 0 -140 l 5
 0 95 l 5
 235 95 l 5
 235 -140 l 5
235 101 m 1
 0 101 l 1
 0 336 l 1
 235 336 l 1
 235 101 l 1
235 342 m 1
 0 342 l 1
 0 578 l 1
 235 578 l 1
 235 342 l 1
235 584 m 1
 0 584 l 1
 0 819 l 1
 235 819 l 1
 235 584 l 1
EndSplineSet
Validated: 1
EndChar

StartChar: Q
Encoding: 81 81 16
Width: 236
Flags: HW
LayerCount: 2
Fore
SplineSet
172 -205 m 1
 56 -205 l 1
 56 -146 l 1
 172 -146 l 1
 172 -205 l 1
EndSplineSet
EndChar

StartChar: R
Encoding: 82 82 17
Width: 236
Flags: HW
LayerCount: 2
Fore
SplineSet
172 -205 m 1
 56 -205 l 1
 56 -146 l 1
 172 -146 l 1
 172 -205 l 1
EndSplineSet
EndChar

StartChar: S
Encoding: 83 83 18
Width: 236
Flags: HW
LayerCount: 2
Fore
SplineSet
172 -205 m 1
 56 -205 l 1
 56 -146 l 1
 172 -146 l 1
 172 -205 l 1
EndSplineSet
EndChar

StartChar: T
Encoding: 84 84 19
Width: 236
Flags: HW
LayerCount: 2
Fore
SplineSet
172 -205 m 1
 56 -205 l 1
 56 -146 l 1
 172 -146 l 1
 172 -205 l 1
EndSplineSet
EndChar

StartChar: U
Encoding: 85 85 20
Width: 236
Flags: HW
LayerCount: 2
Fore
SplineSet
172 -205 m 1
 56 -205 l 1
 56 -146 l 1
 172 -146 l 1
 172 -205 l 1
EndSplineSet
EndChar

StartChar: V
Encoding: 86 86 21
Width: 236
Flags: HW
LayerCount: 2
Fore
SplineSet
172 -205 m 1
 56 -205 l 1
 56 -146 l 1
 172 -146 l 1
 172 -205 l 1
EndSplineSet
EndChar

StartChar: W
Encoding: 87 87 22
Width: 236
Flags: HW
LayerCount: 2
Fore
SplineSet
172 -205 m 1
 56 -205 l 1
 56 -146 l 1
 172 -146 l 1
 172 -205 l 1
EndSplineSet
EndChar

StartChar: X
Encoding: 88 88 23
Width: 236
Flags: HW
LayerCount: 2
Fore
SplineSet
172 -205 m 1
 56 -205 l 1
 56 -146 l 1
 172 -146 l 1
 172 -205 l 1
EndSplineSet
EndChar

StartChar: Y
Encoding: 89 89 24
Width: 236
Flags: HW
LayerCount: 2
Fore
SplineSet
172 -205 m 1
 56 -205 l 1
 56 -146 l 1
 172 -146 l 1
 172 -205 l 1
EndSplineSet
EndChar

StartChar: Z
Encoding: 90 90 25
Width: 236
Flags: HW
LayerCount: 2
Fore
SplineSet
172 -205 m 1
 56 -205 l 1
 56 -146 l 1
 172 -146 l 1
 172 -205 l 1
EndSplineSet
EndChar

StartChar: a
Encoding: 97 97 26
Width: 236
Flags: HW
LayerCount: 2
Fore
SplineSet
172 -205 m 1
 56 -205 l 1
 56 -146 l 1
 172 -146 l 1
 172 -205 l 1
EndSplineSet
EndChar

StartChar: b
Encoding: 98 98 27
Width: 236
Flags: HW
LayerCount: 2
Fore
SplineSet
235 584 m 5
 0 584 l 5
 0 819 l 5
 235 819 l 5
 235 584 l 5
EndSplineSet
Validated: 1
EndChar

StartChar: c
Encoding: 99 99 28
Width: 236
Flags: HW
LayerCount: 2
Fore
SplineSet
235 342 m 5
 0 342 l 5
 0 578 l 5
 235 578 l 5
 235 342 l 5
EndSplineSet
Validated: 1
EndChar

StartChar: d
Encoding: 100 100 29
Width: 236
Flags: HW
LayerCount: 2
Fore
SplineSet
235 342 m 5
 0 342 l 5
 0 578 l 5
 235 578 l 5
 235 342 l 5
235 584 m 5
 0 584 l 5
 0 819 l 5
 235 819 l 5
 235 584 l 5
EndSplineSet
Validated: 1
EndChar

StartChar: e
Encoding: 101 101 30
Width: 236
Flags: HW
LayerCount: 2
Fore
SplineSet
235 101 m 5
 0 101 l 5
 0 336 l 5
 235 336 l 5
 235 101 l 5
EndSplineSet
Validated: 1
EndChar

StartChar: f
Encoding: 102 102 31
Width: 236
Flags: HW
LayerCount: 2
Fore
SplineSet
235 101 m 5
 0 101 l 5
 0 336 l 5
 235 336 l 5
 235 101 l 5
235 584 m 1
 0 584 l 1
 0 819 l 1
 235 819 l 1
 235 584 l 1
EndSplineSet
Validated: 1
EndChar

StartChar: g
Encoding: 103 103 32
Width: 236
Flags: HW
LayerCount: 2
Fore
SplineSet
235 101 m 5
 0 101 l 5
 0 336 l 5
 235 336 l 5
 235 101 l 5
235 342 m 1
 0 342 l 1
 0 578 l 1
 235 578 l 1
 235 342 l 1
EndSplineSet
Validated: 1
EndChar

StartChar: h
Encoding: 104 104 33
Width: 236
Flags: HW
LayerCount: 2
Fore
SplineSet
235 101 m 5
 0 101 l 5
 0 336 l 5
 235 336 l 5
 235 101 l 5
235 342 m 1
 0 342 l 1
 0 578 l 1
 235 578 l 1
 235 342 l 1
235 584 m 1
 0 584 l 1
 0 819 l 1
 235 819 l 1
 235 584 l 1
EndSplineSet
Validated: 1
EndChar

StartChar: i
Encoding: 105 105 34
Width: 236
Flags: HW
LayerCount: 2
Fore
SplineSet
235 -140 m 5
 0 -140 l 5
 0 95 l 5
 235 95 l 5
 235 -140 l 5
EndSplineSet
Validated: 1
EndChar

StartChar: j
Encoding: 106 106 35
Width: 236
Flags: HW
LayerCount: 2
Fore
SplineSet
235 -140 m 5
 0 -140 l 5
 0 95 l 5
 235 95 l 5
 235 -140 l 5
235 584 m 1
 0 584 l 1
 0 819 l 1
 235 819 l 1
 235 584 l 1
EndSplineSet
Validated: 1
EndChar

StartChar: k
Encoding: 107 107 36
Width: 236
Flags: HW
LayerCount: 2
Fore
SplineSet
235 -140 m 5
 0 -140 l 5
 0 95 l 5
 235 95 l 5
 235 -140 l 5
235 342 m 1
 0 342 l 1
 0 578 l 1
 235 578 l 1
 235 342 l 1
EndSplineSet
Validated: 1
EndChar

StartChar: l
Encoding: 108 108 37
Width: 236
Flags: HW
LayerCount: 2
Fore
SplineSet
235 -140 m 5
 0 -140 l 5
 0 95 l 5
 235 95 l 5
 235 -140 l 5
235 342 m 1
 0 342 l 1
 0 578 l 1
 235 578 l 1
 235 342 l 1
235 584 m 1
 0 584 l 1
 0 819 l 1
 235 819 l 1
 235 584 l 1
EndSplineSet
Validated: 1
EndChar

StartChar: m
Encoding: 109 109 38
Width: 236
Flags: HW
LayerCount: 2
Fore
SplineSet
235 -140 m 5
 0 -140 l 5
 0 95 l 5
 235 95 l 5
 235 -140 l 5
235 101 m 1
 0 101 l 1
 0 336 l 1
 235 336 l 1
 235 101 l 1
EndSplineSet
Validated: 1
EndChar

StartChar: n
Encoding: 110 110 39
Width: 236
Flags: HW
LayerCount: 2
Fore
SplineSet
235 -140 m 5
 0 -140 l 5
 0 95 l 5
 235 95 l 5
 235 -140 l 5
235 101 m 1
 0 101 l 1
 0 336 l 1
 235 336 l 1
 235 101 l 1
235 584 m 1
 0 584 l 1
 0 819 l 1
 235 819 l 1
 235 584 l 1
EndSplineSet
Validated: 1
EndChar

StartChar: o
Encoding: 111 111 40
Width: 236
Flags: HW
LayerCount: 2
Fore
SplineSet
235 -140 m 5
 0 -140 l 5
 0 95 l 5
 235 95 l 5
 235 -140 l 5
235 101 m 1
 0 101 l 1
 0 336 l 1
 235 336 l 1
 235 101 l 1
235 342 m 1
 0 342 l 1
 0 578 l 1
 235 578 l 1
 235 342 l 1
EndSplineSet
Validated: 1
EndChar

StartChar: p
Encoding: 112 112 41
Width: 236
Flags: HW
LayerCount: 2
Fore
SplineSet
235 -140 m 5
 0 -140 l 5
 0 95 l 5
 235 95 l 5
 235 -140 l 5
235 101 m 1
 0 101 l 1
 0 336 l 1
 235 336 l 1
 235 101 l 1
235 342 m 1
 0 342 l 1
 0 578 l 1
 235 578 l 1
 235 342 l 1
235 584 m 1
 0 584 l 1
 0 819 l 1
 235 819 l 1
 235 584 l 1
EndSplineSet
Validated: 1
EndChar

StartChar: uni0000
Encoding: 0 0 42
Width: 236
Flags: HW
LayerCount: 2
Fore
SplineSet
172 -205 m 1
 56 -205 l 1
 56 -146 l 1
 172 -146 l 1
 172 -205 l 1
EndSplineSet
EndChar

StartChar: uni0001
Encoding: 1 1 43
Width: 236
Flags: HW
LayerCount: 2
Fore
SplineSet
172 -205 m 1
 56 -205 l 1
 56 -146 l 1
 172 -146 l 1
 172 -205 l 1
EndSplineSet
EndChar

StartChar: uni0002
Encoding: 2 2 44
Width: 236
Flags: HW
LayerCount: 2
Fore
SplineSet
172 -205 m 1
 56 -205 l 1
 56 -146 l 1
 172 -146 l 1
 172 -205 l 1
EndSplineSet
EndChar

StartChar: uni0003
Encoding: 3 3 45
Width: 236
Flags: HW
LayerCount: 2
Fore
SplineSet
172 -205 m 1
 56 -205 l 1
 56 -146 l 1
 172 -146 l 1
 172 -205 l 1
EndSplineSet
EndChar

StartChar: uni0004
Encoding: 4 4 46
Width: 236
Flags: HW
LayerCount: 2
Fore
SplineSet
172 -205 m 1
 56 -205 l 1
 56 -146 l 1
 172 -146 l 1
 172 -205 l 1
EndSplineSet
EndChar

StartChar: uni0005
Encoding: 5 5 47
Width: 236
Flags: HW
LayerCount: 2
Fore
SplineSet
172 -205 m 1
 56 -205 l 1
 56 -146 l 1
 172 -146 l 1
 172 -205 l 1
EndSplineSet
EndChar

StartChar: uni0006
Encoding: 6 6 48
Width: 236
Flags: HW
LayerCount: 2
Fore
SplineSet
172 -205 m 1
 56 -205 l 1
 56 -146 l 1
 172 -146 l 1
 172 -205 l 1
EndSplineSet
EndChar

StartChar: uni0007
Encoding: 7 7 49
Width: 236
Flags: HW
LayerCount: 2
Fore
SplineSet
172 -205 m 1
 56 -205 l 1
 56 -146 l 1
 172 -146 l 1
 172 -205 l 1
EndSplineSet
EndChar

StartChar: uni0008
Encoding: 8 8 50
Width: 236
Flags: HW
LayerCount: 2
Fore
SplineSet
172 -205 m 1
 56 -205 l 1
 56 -146 l 1
 172 -146 l 1
 172 -205 l 1
EndSplineSet
EndChar

StartChar: uni0009
Encoding: 9 9 51
Width: 236
Flags: HW
LayerCount: 2
Fore
SplineSet
172 -205 m 1
 56 -205 l 1
 56 -146 l 1
 172 -146 l 1
 172 -205 l 1
EndSplineSet
EndChar

StartChar: uni000A
Encoding: 10 10 52
Width: 236
Flags: HW
LayerCount: 2
Fore
SplineSet
172 -205 m 1
 56 -205 l 1
 56 -146 l 1
 172 -146 l 1
 172 -205 l 1
EndSplineSet
EndChar

StartChar: uni000B
Encoding: 11 11 53
Width: 236
Flags: HW
LayerCount: 2
Fore
SplineSet
172 -205 m 1
 56 -205 l 1
 56 -146 l 1
 172 -146 l 1
 172 -205 l 1
EndSplineSet
EndChar

StartChar: uni000C
Encoding: 12 12 54
Width: 236
Flags: HW
LayerCount: 2
Fore
SplineSet
172 -205 m 1
 56 -205 l 1
 56 -146 l 1
 172 -146 l 1
 172 -205 l 1
EndSplineSet
EndChar

StartChar: uni000D
Encoding: 13 13 55
Width: 236
Flags: HW
LayerCount: 2
Fore
SplineSet
172 -205 m 1
 56 -205 l 1
 56 -146 l 1
 172 -146 l 1
 172 -205 l 1
EndSplineSet
EndChar

StartChar: uni000E
Encoding: 14 14 56
Width: 236
Flags: HW
LayerCount: 2
Fore
SplineSet
172 -205 m 1
 56 -205 l 1
 56 -146 l 1
 172 -146 l 1
 172 -205 l 1
EndSplineSet
EndChar

StartChar: uni000F
Encoding: 15 15 57
Width: 236
Flags: HW
LayerCount: 2
Fore
SplineSet
172 -205 m 1
 56 -205 l 1
 56 -146 l 1
 172 -146 l 1
 172 -205 l 1
EndSplineSet
EndChar

StartChar: uni0010
Encoding: 16 16 58
Width: 236
Flags: HW
LayerCount: 2
Fore
SplineSet
172 -205 m 1
 56 -205 l 1
 56 -146 l 1
 172 -146 l 1
 172 -205 l 1
EndSplineSet
EndChar

StartChar: uni0011
Encoding: 17 17 59
Width: 236
Flags: HW
LayerCount: 2
Fore
SplineSet
172 -205 m 1
 56 -205 l 1
 56 -146 l 1
 172 -146 l 1
 172 -205 l 1
EndSplineSet
EndChar

StartChar: uni0012
Encoding: 18 18 60
Width: 236
Flags: HW
LayerCount: 2
Fore
SplineSet
172 -205 m 1
 56 -205 l 1
 56 -146 l 1
 172 -146 l 1
 172 -205 l 1
EndSplineSet
EndChar

StartChar: uni0013
Encoding: 19 19 61
Width: 236
Flags: HW
LayerCount: 2
Fore
SplineSet
172 -205 m 1
 56 -205 l 1
 56 -146 l 1
 172 -146 l 1
 172 -205 l 1
EndSplineSet
EndChar

StartChar: uni0014
Encoding: 20 20 62
Width: 236
Flags: HW
LayerCount: 2
Fore
SplineSet
172 -205 m 1
 56 -205 l 1
 56 -146 l 1
 172 -146 l 1
 172 -205 l 1
EndSplineSet
EndChar

StartChar: uni0015
Encoding: 21 21 63
Width: 236
Flags: HW
LayerCount: 2
Fore
SplineSet
172 -205 m 1
 56 -205 l 1
 56 -146 l 1
 172 -146 l 1
 172 -205 l 1
EndSplineSet
EndChar

StartChar: uni0016
Encoding: 22 22 64
Width: 236
Flags: HW
LayerCount: 2
Fore
SplineSet
172 -205 m 1
 56 -205 l 1
 56 -146 l 1
 172 -146 l 1
 172 -205 l 1
EndSplineSet
EndChar

StartChar: uni0017
Encoding: 23 23 65
Width: 236
Flags: HW
LayerCount: 2
Fore
SplineSet
172 -205 m 1
 56 -205 l 1
 56 -146 l 1
 172 -146 l 1
 172 -205 l 1
EndSplineSet
EndChar

StartChar: uni0018
Encoding: 24 24 66
Width: 236
Flags: HW
LayerCount: 2
Fore
SplineSet
172 -205 m 1
 56 -205 l 1
 56 -146 l 1
 172 -146 l 1
 172 -205 l 1
EndSplineSet
EndChar

StartChar: uni0019
Encoding: 25 25 67
Width: 236
Flags: HW
LayerCount: 2
Fore
SplineSet
172 -205 m 1
 56 -205 l 1
 56 -146 l 1
 172 -146 l 1
 172 -205 l 1
EndSplineSet
EndChar

StartChar: uni001A
Encoding: 26 26 68
Width: 236
Flags: HW
LayerCount: 2
Fore
SplineSet
172 -205 m 1
 56 -205 l 1
 56 -146 l 1
 172 -146 l 1
 172 -205 l 1
EndSplineSet
EndChar

StartChar: uni001B
Encoding: 27 27 69
Width: 236
Flags: HW
LayerCount: 2
Fore
SplineSet
172 -205 m 1
 56 -205 l 1
 56 -146 l 1
 172 -146 l 1
 172 -205 l 1
EndSplineSet
EndChar

StartChar: uni001C
Encoding: 28 28 70
Width: 236
Flags: HW
LayerCount: 2
Fore
SplineSet
172 -205 m 1
 56 -205 l 1
 56 -146 l 1
 172 -146 l 1
 172 -205 l 1
EndSplineSet
EndChar

StartChar: uni001D
Encoding: 29 29 71
Width: 236
Flags: HW
LayerCount: 2
Fore
SplineSet
172 -205 m 1
 56 -205 l 1
 56 -146 l 1
 172 -146 l 1
 172 -205 l 1
EndSplineSet
EndChar

StartChar: uni001E
Encoding: 30 30 72
Width: 236
Flags: HW
LayerCount: 2
Fore
SplineSet
172 -205 m 1
 56 -205 l 1
 56 -146 l 1
 172 -146 l 1
 172 -205 l 1
EndSplineSet
EndChar

StartChar: uni001F
Encoding: 31 31 73
Width: 236
Flags: HW
LayerCount: 2
Fore
SplineSet
172 -205 m 1
 56 -205 l 1
 56 -146 l 1
 172 -146 l 1
 172 -205 l 1
EndSplineSet
EndChar

StartChar: space
Encoding: 32 32 74
Width: 236
Flags: HW
LayerCount: 2
Fore
SplineSet
172 -205 m 1
 56 -205 l 1
 56 -146 l 1
 172 -146 l 1
 172 -205 l 1
EndSplineSet
EndChar

StartChar: exclam
Encoding: 33 33 75
Width: 236
Flags: HW
LayerCount: 2
Fore
SplineSet
172 -205 m 1
 56 -205 l 1
 56 -146 l 1
 172 -146 l 1
 172 -205 l 1
EndSplineSet
EndChar

StartChar: quotedbl
Encoding: 34 34 76
Width: 236
Flags: HW
LayerCount: 2
Fore
SplineSet
172 -205 m 1
 56 -205 l 1
 56 -146 l 1
 172 -146 l 1
 172 -205 l 1
EndSplineSet
EndChar

StartChar: numbersign
Encoding: 35 35 77
Width: 236
Flags: HW
LayerCount: 2
Fore
SplineSet
172 -205 m 1
 56 -205 l 1
 56 -146 l 1
 172 -146 l 1
 172 -205 l 1
EndSplineSet
EndChar

StartChar: dollar
Encoding: 36 36 78
Width: 236
Flags: HW
LayerCount: 2
Fore
SplineSet
172 -205 m 1
 56 -205 l 1
 56 -146 l 1
 172 -146 l 1
 172 -205 l 1
EndSplineSet
EndChar

StartChar: percent
Encoding: 37 37 79
Width: 236
Flags: HW
LayerCount: 2
Fore
SplineSet
172 -205 m 1
 56 -205 l 1
 56 -146 l 1
 172 -146 l 1
 172 -205 l 1
EndSplineSet
EndChar

StartChar: ampersand
Encoding: 38 38 80
Width: 236
Flags: HW
LayerCount: 2
Fore
SplineSet
172 -205 m 1
 56 -205 l 1
 56 -146 l 1
 172 -146 l 1
 172 -205 l 1
EndSplineSet
EndChar

StartChar: quotesingle
Encoding: 39 39 81
Width: 236
Flags: HW
LayerCount: 2
Fore
SplineSet
172 -205 m 1
 56 -205 l 1
 56 -146 l 1
 172 -146 l 1
 172 -205 l 1
EndSplineSet
EndChar

StartChar: parenleft
Encoding: 40 40 82
Width: 236
Flags: HW
LayerCount: 2
Fore
SplineSet
172 -205 m 1
 56 -205 l 1
 56 -146 l 1
 172 -146 l 1
 172 -205 l 1
EndSplineSet
EndChar

StartChar: parenright
Encoding: 41 41 83
Width: 236
Flags: HW
LayerCount: 2
Fore
SplineSet
172 -205 m 1
 56 -205 l 1
 56 -146 l 1
 172 -146 l 1
 172 -205 l 1
EndSplineSet
EndChar

StartChar: asterisk
Encoding: 42 42 84
Width: 236
Flags: HW
LayerCount: 2
Fore
SplineSet
172 -205 m 1
 56 -205 l 1
 56 -146 l 1
 172 -146 l 1
 172 -205 l 1
EndSplineSet
EndChar

StartChar: plus
Encoding: 43 43 85
Width: 236
Flags: HW
LayerCount: 2
Fore
SplineSet
172 -205 m 1
 56 -205 l 1
 56 -146 l 1
 172 -146 l 1
 172 -205 l 1
EndSplineSet
EndChar

StartChar: comma
Encoding: 44 44 86
Width: 236
Flags: HW
LayerCount: 2
Fore
SplineSet
172 -205 m 1
 56 -205 l 1
 56 -146 l 1
 172 -146 l 1
 172 -205 l 1
EndSplineSet
EndChar

StartChar: hyphen
Encoding: 45 45 87
Width: 236
Flags: HW
LayerCount: 2
Fore
SplineSet
172 -205 m 1
 56 -205 l 1
 56 -146 l 1
 172 -146 l 1
 172 -205 l 1
EndSplineSet
EndChar

StartChar: period
Encoding: 46 46 88
Width: 236
Flags: HW
LayerCount: 2
Fore
SplineSet
172 -205 m 1
 56 -205 l 1
 56 -146 l 1
 172 -146 l 1
 172 -205 l 1
EndSplineSet
EndChar

StartChar: slash
Encoding: 47 47 89
Width: 236
Flags: HW
LayerCount: 2
Fore
SplineSet
172 -205 m 1
 56 -205 l 1
 56 -146 l 1
 172 -146 l 1
 172 -205 l 1
EndSplineSet
EndChar

StartChar: zero
Encoding: 48 48 90
Width: 236
Flags: HW
LayerCount: 2
Fore
SplineSet
172 -205 m 1
 56 -205 l 1
 56 -146 l 1
 172 -146 l 1
 172 -205 l 1
EndSplineSet
EndChar

StartChar: one
Encoding: 49 49 91
Width: 236
Flags: HW
LayerCount: 2
Fore
SplineSet
172 -205 m 1
 56 -205 l 1
 56 -146 l 1
 172 -146 l 1
 172 -205 l 1
EndSplineSet
EndChar

StartChar: two
Encoding: 50 50 92
Width: 236
Flags: HW
LayerCount: 2
Fore
SplineSet
172 -205 m 1
 56 -205 l 1
 56 -146 l 1
 172 -146 l 1
 172 -205 l 1
EndSplineSet
EndChar

StartChar: three
Encoding: 51 51 93
Width: 236
Flags: HW
LayerCount: 2
Fore
SplineSet
172 -205 m 1
 56 -205 l 1
 56 -146 l 1
 172 -146 l 1
 172 -205 l 1
EndSplineSet
EndChar

StartChar: four
Encoding: 52 52 94
Width: 236
Flags: HW
LayerCount: 2
Fore
SplineSet
172 -205 m 1
 56 -205 l 1
 56 -146 l 1
 172 -146 l 1
 172 -205 l 1
EndSplineSet
EndChar

StartChar: five
Encoding: 53 53 95
Width: 236
Flags: HW
LayerCount: 2
Fore
SplineSet
172 -205 m 1
 56 -205 l 1
 56 -146 l 1
 172 -146 l 1
 172 -205 l 1
EndSplineSet
EndChar

StartChar: six
Encoding: 54 54 96
Width: 236
Flags: HW
LayerCount: 2
Fore
SplineSet
172 -205 m 1
 56 -205 l 1
 56 -146 l 1
 172 -146 l 1
 172 -205 l 1
EndSplineSet
EndChar

StartChar: seven
Encoding: 55 55 97
Width: 236
Flags: HW
LayerCount: 2
Fore
SplineSet
172 -205 m 1
 56 -205 l 1
 56 -146 l 1
 172 -146 l 1
 172 -205 l 1
EndSplineSet
EndChar

StartChar: eight
Encoding: 56 56 98
Width: 236
Flags: HW
LayerCount: 2
Fore
SplineSet
172 -205 m 1
 56 -205 l 1
 56 -146 l 1
 172 -146 l 1
 172 -205 l 1
EndSplineSet
EndChar

StartChar: nine
Encoding: 57 57 99
Width: 236
Flags: HW
LayerCount: 2
Fore
SplineSet
172 -205 m 1
 56 -205 l 1
 56 -146 l 1
 172 -146 l 1
 172 -205 l 1
EndSplineSet
EndChar

StartChar: colon
Encoding: 58 58 100
Width: 236
Flags: HW
LayerCount: 2
Fore
SplineSet
172 -205 m 1
 56 -205 l 1
 56 -146 l 1
 172 -146 l 1
 172 -205 l 1
EndSplineSet
EndChar

StartChar: semicolon
Encoding: 59 59 101
Width: 236
Flags: HW
LayerCount: 2
Fore
SplineSet
172 -205 m 1
 56 -205 l 1
 56 -146 l 1
 172 -146 l 1
 172 -205 l 1
EndSplineSet
EndChar

StartChar: less
Encoding: 60 60 102
Width: 236
Flags: HW
LayerCount: 2
Fore
SplineSet
172 -205 m 1
 56 -205 l 1
 56 -146 l 1
 172 -146 l 1
 172 -205 l 1
EndSplineSet
EndChar

StartChar: equal
Encoding: 61 61 103
Width: 236
Flags: HW
LayerCount: 2
Fore
SplineSet
172 -205 m 1
 56 -205 l 1
 56 -146 l 1
 172 -146 l 1
 172 -205 l 1
EndSplineSet
EndChar

StartChar: greater
Encoding: 62 62 104
Width: 236
Flags: HW
LayerCount: 2
Fore
SplineSet
172 -205 m 1
 56 -205 l 1
 56 -146 l 1
 172 -146 l 1
 172 -205 l 1
EndSplineSet
EndChar

StartChar: question
Encoding: 63 63 105
Width: 236
Flags: HW
LayerCount: 2
Fore
SplineSet
172 -205 m 1
 56 -205 l 1
 56 -146 l 1
 172 -146 l 1
 172 -205 l 1
EndSplineSet
EndChar

StartChar: at
Encoding: 64 64 106
Width: 236
Flags: HW
LayerCount: 2
Fore
SplineSet
172 -205 m 1
 56 -205 l 1
 56 -146 l 1
 172 -146 l 1
 172 -205 l 1
EndSplineSet
EndChar

StartChar: bracketleft
Encoding: 91 91 107
Width: 236
Flags: HW
LayerCount: 2
Fore
SplineSet
172 -205 m 1
 56 -205 l 1
 56 -146 l 1
 172 -146 l 1
 172 -205 l 1
EndSplineSet
EndChar

StartChar: backslash
Encoding: 92 92 108
Width: 236
Flags: HW
LayerCount: 2
Fore
SplineSet
172 -205 m 1
 56 -205 l 1
 56 -146 l 1
 172 -146 l 1
 172 -205 l 1
EndSplineSet
EndChar

StartChar: bracketright
Encoding: 93 93 109
Width: 236
Flags: HW
LayerCount: 2
Fore
SplineSet
172 -205 m 1
 56 -205 l 1
 56 -146 l 1
 172 -146 l 1
 172 -205 l 1
EndSplineSet
EndChar

StartChar: asciicircum
Encoding: 94 94 110
Width: 236
Flags: HW
LayerCount: 2
Fore
SplineSet
172 -205 m 1
 56 -205 l 1
 56 -146 l 1
 172 -146 l 1
 172 -205 l 1
EndSplineSet
EndChar

StartChar: underscore
Encoding: 95 95 111
Width: 236
Flags: HW
LayerCount: 2
Fore
SplineSet
172 -205 m 1
 56 -205 l 1
 56 -146 l 1
 172 -146 l 1
 172 -205 l 1
EndSplineSet
EndChar

StartChar: grave
Encoding: 96 96 112
Width: 236
Flags: HW
LayerCount: 2
Fore
SplineSet
172 -205 m 1
 56 -205 l 1
 56 -146 l 1
 172 -146 l 1
 172 -205 l 1
EndSplineSet
EndChar

StartChar: q
Encoding: 113 113 113
Width: 236
Flags: HW
LayerCount: 2
Fore
SplineSet
172 -205 m 1
 56 -205 l 1
 56 -146 l 1
 172 -146 l 1
 172 -205 l 1
EndSplineSet
EndChar

StartChar: r
Encoding: 114 114 114
Width: 236
Flags: HW
LayerCount: 2
Fore
SplineSet
172 -205 m 1
 56 -205 l 1
 56 -146 l 1
 172 -146 l 1
 172 -205 l 1
EndSplineSet
EndChar

StartChar: s
Encoding: 115 115 115
Width: 236
Flags: HW
LayerCount: 2
Fore
SplineSet
172 -205 m 1
 56 -205 l 1
 56 -146 l 1
 172 -146 l 1
 172 -205 l 1
EndSplineSet
EndChar

StartChar: t
Encoding: 116 116 116
Width: 236
Flags: HW
LayerCount: 2
Fore
SplineSet
172 -205 m 1
 56 -205 l 1
 56 -146 l 1
 172 -146 l 1
 172 -205 l 1
EndSplineSet
EndChar

StartChar: u
Encoding: 117 117 117
Width: 236
Flags: HW
LayerCount: 2
Fore
SplineSet
172 -205 m 1
 56 -205 l 1
 56 -146 l 1
 172 -146 l 1
 172 -205 l 1
EndSplineSet
EndChar

StartChar: v
Encoding: 118 118 118
Width: 236
Flags: HW
LayerCount: 2
Fore
SplineSet
172 -205 m 1
 56 -205 l 1
 56 -146 l 1
 172 -146 l 1
 172 -205 l 1
EndSplineSet
EndChar

StartChar: w
Encoding: 119 119 119
Width: 236
Flags: HW
LayerCount: 2
Fore
SplineSet
172 -205 m 1
 56 -205 l 1
 56 -146 l 1
 172 -146 l 1
 172 -205 l 1
EndSplineSet
EndChar

StartChar: x
Encoding: 120 120 120
Width: 236
Flags: HW
LayerCount: 2
Fore
SplineSet
172 -205 m 1
 56 -205 l 1
 56 -146 l 1
 172 -146 l 1
 172 -205 l 1
EndSplineSet
EndChar

StartChar: y
Encoding: 121 121 121
Width: 236
Flags: HW
LayerCount: 2
Fore
SplineSet
172 -205 m 1
 56 -205 l 1
 56 -146 l 1
 172 -146 l 1
 172 -205 l 1
EndSplineSet
EndChar

StartChar: z
Encoding: 122 122 122
Width: 236
Flags: HW
LayerCount: 2
Fore
SplineSet
172 -205 m 1
 56 -205 l 1
 56 -146 l 1
 172 -146 l 1
 172 -205 l 1
EndSplineSet
EndChar

StartChar: braceleft
Encoding: 123 123 123
Width: 236
Flags: HW
LayerCount: 2
Fore
SplineSet
172 -205 m 1
 56 -205 l 1
 56 -146 l 1
 172 -146 l 1
 172 -205 l 1
EndSplineSet
EndChar

StartChar: bar
Encoding: 124 124 124
Width: 236
Flags: HW
LayerCount: 2
Fore
SplineSet
172 -205 m 1
 56 -205 l 1
 56 -146 l 1
 172 -146 l 1
 172 -205 l 1
EndSplineSet
EndChar

StartChar: braceright
Encoding: 125 125 125
Width: 236
Flags: HW
LayerCount: 2
Fore
SplineSet
172 -205 m 1
 56 -205 l 1
 56 -146 l 1
 172 -146 l 1
 172 -205 l 1
EndSplineSet
EndChar

StartChar: asciitilde
Encoding: 126 126 126
Width: 236
Flags: HW
LayerCount: 2
Fore
SplineSet
172 -205 m 1
 56 -205 l 1
 56 -146 l 1
 172 -146 l 1
 172 -205 l 1
EndSplineSet
EndChar

StartChar: uni007F
Encoding: 127 127 127
Width: 236
Flags: HW
LayerCount: 2
Fore
SplineSet
172 -205 m 1
 56 -205 l 1
 56 -146 l 1
 172 -146 l 1
 172 -205 l 1
EndSplineSet
EndChar

StartChar: uni0080
Encoding: 128 128 128
Width: 236
Flags: HW
LayerCount: 2
Fore
SplineSet
172 -205 m 1
 56 -205 l 1
 56 -146 l 1
 172 -146 l 1
 172 -205 l 1
EndSplineSet
EndChar

StartChar: uni0081
Encoding: 129 129 129
Width: 236
Flags: HW
LayerCount: 2
Fore
SplineSet
172 -205 m 1
 56 -205 l 1
 56 -146 l 1
 172 -146 l 1
 172 -205 l 1
EndSplineSet
EndChar

StartChar: uni0082
Encoding: 130 130 130
Width: 236
Flags: HW
LayerCount: 2
Fore
SplineSet
172 -205 m 1
 56 -205 l 1
 56 -146 l 1
 172 -146 l 1
 172 -205 l 1
EndSplineSet
EndChar

StartChar: uni0083
Encoding: 131 131 131
Width: 236
Flags: HW
LayerCount: 2
Fore
SplineSet
172 -205 m 1
 56 -205 l 1
 56 -146 l 1
 172 -146 l 1
 172 -205 l 1
EndSplineSet
EndChar

StartChar: uni0084
Encoding: 132 132 132
Width: 236
Flags: HW
LayerCount: 2
Fore
SplineSet
172 -205 m 1
 56 -205 l 1
 56 -146 l 1
 172 -146 l 1
 172 -205 l 1
EndSplineSet
EndChar

StartChar: uni0085
Encoding: 133 133 133
Width: 236
Flags: HW
LayerCount: 2
Fore
SplineSet
172 -205 m 1
 56 -205 l 1
 56 -146 l 1
 172 -146 l 1
 172 -205 l 1
EndSplineSet
EndChar

StartChar: uni0086
Encoding: 134 134 134
Width: 236
Flags: HW
LayerCount: 2
Fore
SplineSet
172 -205 m 1
 56 -205 l 1
 56 -146 l 1
 172 -146 l 1
 172 -205 l 1
EndSplineSet
EndChar

StartChar: uni0087
Encoding: 135 135 135
Width: 236
Flags: HW
LayerCount: 2
Fore
SplineSet
172 -205 m 1
 56 -205 l 1
 56 -146 l 1
 172 -146 l 1
 172 -205 l 1
EndSplineSet
EndChar

StartChar: uni0088
Encoding: 136 136 136
Width: 236
Flags: HW
LayerCount: 2
Fore
SplineSet
172 -205 m 1
 56 -205 l 1
 56 -146 l 1
 172 -146 l 1
 172 -205 l 1
EndSplineSet
EndChar

StartChar: uni0089
Encoding: 137 137 137
Width: 236
Flags: HW
LayerCount: 2
Fore
SplineSet
172 -205 m 1
 56 -205 l 1
 56 -146 l 1
 172 -146 l 1
 172 -205 l 1
EndSplineSet
EndChar

StartChar: uni008A
Encoding: 138 138 138
Width: 236
Flags: HW
LayerCount: 2
Fore
SplineSet
172 -205 m 1
 56 -205 l 1
 56 -146 l 1
 172 -146 l 1
 172 -205 l 1
EndSplineSet
EndChar

StartChar: uni008B
Encoding: 139 139 139
Width: 236
Flags: HW
LayerCount: 2
Fore
SplineSet
172 -205 m 1
 56 -205 l 1
 56 -146 l 1
 172 -146 l 1
 172 -205 l 1
EndSplineSet
EndChar

StartChar: uni008C
Encoding: 140 140 140
Width: 236
Flags: HW
LayerCount: 2
Fore
SplineSet
172 -205 m 1
 56 -205 l 1
 56 -146 l 1
 172 -146 l 1
 172 -205 l 1
EndSplineSet
EndChar

StartChar: uni008D
Encoding: 141 141 141
Width: 236
Flags: HW
LayerCount: 2
Fore
SplineSet
172 -205 m 1
 56 -205 l 1
 56 -146 l 1
 172 -146 l 1
 172 -205 l 1
EndSplineSet
EndChar

StartChar: uni008E
Encoding: 142 142 142
Width: 236
Flags: HW
LayerCount: 2
Fore
SplineSet
172 -205 m 1
 56 -205 l 1
 56 -146 l 1
 172 -146 l 1
 172 -205 l 1
EndSplineSet
EndChar

StartChar: uni008F
Encoding: 143 143 143
Width: 236
Flags: HW
LayerCount: 2
Fore
SplineSet
172 -205 m 1
 56 -205 l 1
 56 -146 l 1
 172 -146 l 1
 172 -205 l 1
EndSplineSet
EndChar

StartChar: uni0090
Encoding: 144 144 144
Width: 236
Flags: HW
LayerCount: 2
Fore
SplineSet
172 -205 m 1
 56 -205 l 1
 56 -146 l 1
 172 -146 l 1
 172 -205 l 1
EndSplineSet
EndChar

StartChar: uni0091
Encoding: 145 145 145
Width: 236
Flags: HW
LayerCount: 2
Fore
SplineSet
172 -205 m 1
 56 -205 l 1
 56 -146 l 1
 172 -146 l 1
 172 -205 l 1
EndSplineSet
EndChar

StartChar: uni0092
Encoding: 146 146 146
Width: 236
Flags: HW
LayerCount: 2
Fore
SplineSet
172 -205 m 1
 56 -205 l 1
 56 -146 l 1
 172 -146 l 1
 172 -205 l 1
EndSplineSet
EndChar

StartChar: uni0093
Encoding: 147 147 147
Width: 236
Flags: HW
LayerCount: 2
Fore
SplineSet
172 -205 m 1
 56 -205 l 1
 56 -146 l 1
 172 -146 l 1
 172 -205 l 1
EndSplineSet
EndChar

StartChar: uni0094
Encoding: 148 148 148
Width: 236
Flags: HW
LayerCount: 2
Fore
SplineSet
172 -205 m 1
 56 -205 l 1
 56 -146 l 1
 172 -146 l 1
 172 -205 l 1
EndSplineSet
EndChar

StartChar: uni0095
Encoding: 149 149 149
Width: 236
Flags: HW
LayerCount: 2
Fore
SplineSet
172 -205 m 1
 56 -205 l 1
 56 -146 l 1
 172 -146 l 1
 172 -205 l 1
EndSplineSet
EndChar

StartChar: uni0096
Encoding: 150 150 150
Width: 236
Flags: HW
LayerCount: 2
Fore
SplineSet
172 -205 m 1
 56 -205 l 1
 56 -146 l 1
 172 -146 l 1
 172 -205 l 1
EndSplineSet
EndChar

StartChar: uni0097
Encoding: 151 151 151
Width: 236
Flags: HW
LayerCount: 2
Fore
SplineSet
172 -205 m 1
 56 -205 l 1
 56 -146 l 1
 172 -146 l 1
 172 -205 l 1
EndSplineSet
EndChar

StartChar: uni0098
Encoding: 152 152 152
Width: 236
Flags: HW
LayerCount: 2
Fore
SplineSet
172 -205 m 1
 56 -205 l 1
 56 -146 l 1
 172 -146 l 1
 172 -205 l 1
EndSplineSet
EndChar

StartChar: uni0099
Encoding: 153 153 153
Width: 236
Flags: HW
LayerCount: 2
Fore
SplineSet
172 -205 m 1
 56 -205 l 1
 56 -146 l 1
 172 -146 l 1
 172 -205 l 1
EndSplineSet
EndChar

StartChar: uni009A
Encoding: 154 154 154
Width: 236
Flags: HW
LayerCount: 2
Fore
SplineSet
172 -205 m 1
 56 -205 l 1
 56 -146 l 1
 172 -146 l 1
 172 -205 l 1
EndSplineSet
EndChar

StartChar: uni009B
Encoding: 155 155 155
Width: 236
Flags: HW
LayerCount: 2
Fore
SplineSet
172 -205 m 1
 56 -205 l 1
 56 -146 l 1
 172 -146 l 1
 172 -205 l 1
EndSplineSet
EndChar

StartChar: uni009C
Encoding: 156 156 156
Width: 236
Flags: HW
LayerCount: 2
Fore
SplineSet
172 -205 m 1
 56 -205 l 1
 56 -146 l 1
 172 -146 l 1
 172 -205 l 1
EndSplineSet
EndChar

StartChar: uni009D
Encoding: 157 157 157
Width: 236
Flags: HW
LayerCount: 2
Fore
SplineSet
172 -205 m 1
 56 -205 l 1
 56 -146 l 1
 172 -146 l 1
 172 -205 l 1
EndSplineSet
EndChar

StartChar: uni009E
Encoding: 158 158 158
Width: 236
Flags: HW
LayerCount: 2
Fore
SplineSet
172 -205 m 1
 56 -205 l 1
 56 -146 l 1
 172 -146 l 1
 172 -205 l 1
EndSplineSet
EndChar

StartChar: uni009F
Encoding: 159 159 159
Width: 236
Flags: HW
LayerCount: 2
Fore
SplineSet
172 -205 m 1
 56 -205 l 1
 56 -146 l 1
 172 -146 l 1
 172 -205 l 1
EndSplineSet
EndChar

StartChar: uni00A0
Encoding: 160 160 160
Width: 236
Flags: HW
LayerCount: 2
Fore
SplineSet
172 -205 m 1
 56 -205 l 1
 56 -146 l 1
 172 -146 l 1
 172 -205 l 1
EndSplineSet
EndChar

StartChar: exclamdown
Encoding: 161 161 161
Width: 236
Flags: HW
LayerCount: 2
Fore
SplineSet
172 -205 m 1
 56 -205 l 1
 56 -146 l 1
 172 -146 l 1
 172 -205 l 1
EndSplineSet
EndChar

StartChar: cent
Encoding: 162 162 162
Width: 236
Flags: HW
LayerCount: 2
Fore
SplineSet
172 -205 m 1
 56 -205 l 1
 56 -146 l 1
 172 -146 l 1
 172 -205 l 1
EndSplineSet
EndChar

StartChar: sterling
Encoding: 163 163 163
Width: 236
Flags: HW
LayerCount: 2
Fore
SplineSet
172 -205 m 1
 56 -205 l 1
 56 -146 l 1
 172 -146 l 1
 172 -205 l 1
EndSplineSet
EndChar

StartChar: currency
Encoding: 164 164 164
Width: 236
Flags: HW
LayerCount: 2
Fore
SplineSet
172 -205 m 1
 56 -205 l 1
 56 -146 l 1
 172 -146 l 1
 172 -205 l 1
EndSplineSet
EndChar

StartChar: yen
Encoding: 165 165 165
Width: 236
Flags: HW
LayerCount: 2
Fore
SplineSet
172 -205 m 1
 56 -205 l 1
 56 -146 l 1
 172 -146 l 1
 172 -205 l 1
EndSplineSet
EndChar

StartChar: brokenbar
Encoding: 166 166 166
Width: 236
Flags: HW
LayerCount: 2
Fore
SplineSet
172 -205 m 1
 56 -205 l 1
 56 -146 l 1
 172 -146 l 1
 172 -205 l 1
EndSplineSet
EndChar

StartChar: section
Encoding: 167 167 167
Width: 236
Flags: HW
LayerCount: 2
Fore
SplineSet
172 -205 m 1
 56 -205 l 1
 56 -146 l 1
 172 -146 l 1
 172 -205 l 1
EndSplineSet
EndChar

StartChar: dieresis
Encoding: 168 168 168
Width: 236
Flags: HW
LayerCount: 2
Fore
SplineSet
172 -205 m 1
 56 -205 l 1
 56 -146 l 1
 172 -146 l 1
 172 -205 l 1
EndSplineSet
EndChar

StartChar: copyright
Encoding: 169 169 169
Width: 236
Flags: HW
LayerCount: 2
Fore
SplineSet
172 -205 m 1
 56 -205 l 1
 56 -146 l 1
 172 -146 l 1
 172 -205 l 1
EndSplineSet
EndChar

StartChar: ordfeminine
Encoding: 170 170 170
Width: 236
Flags: HW
LayerCount: 2
Fore
SplineSet
172 -205 m 1
 56 -205 l 1
 56 -146 l 1
 172 -146 l 1
 172 -205 l 1
EndSplineSet
EndChar

StartChar: guillemotleft
Encoding: 171 171 171
Width: 236
Flags: HW
LayerCount: 2
Fore
SplineSet
172 -205 m 1
 56 -205 l 1
 56 -146 l 1
 172 -146 l 1
 172 -205 l 1
EndSplineSet
EndChar

StartChar: logicalnot
Encoding: 172 172 172
Width: 236
Flags: HW
LayerCount: 2
Fore
SplineSet
172 -205 m 1
 56 -205 l 1
 56 -146 l 1
 172 -146 l 1
 172 -205 l 1
EndSplineSet
EndChar

StartChar: uni00AD
Encoding: 173 173 173
Width: 236
Flags: HW
LayerCount: 2
Fore
SplineSet
172 -205 m 1
 56 -205 l 1
 56 -146 l 1
 172 -146 l 1
 172 -205 l 1
EndSplineSet
EndChar

StartChar: registered
Encoding: 174 174 174
Width: 236
Flags: HW
LayerCount: 2
Fore
SplineSet
172 -205 m 1
 56 -205 l 1
 56 -146 l 1
 172 -146 l 1
 172 -205 l 1
EndSplineSet
EndChar

StartChar: macron
Encoding: 175 175 175
Width: 236
Flags: HW
LayerCount: 2
Fore
SplineSet
172 -205 m 1
 56 -205 l 1
 56 -146 l 1
 172 -146 l 1
 172 -205 l 1
EndSplineSet
EndChar

StartChar: degree
Encoding: 176 176 176
Width: 236
Flags: HW
LayerCount: 2
Fore
SplineSet
172 -205 m 1
 56 -205 l 1
 56 -146 l 1
 172 -146 l 1
 172 -205 l 1
EndSplineSet
EndChar

StartChar: plusminus
Encoding: 177 177 177
Width: 236
Flags: HW
LayerCount: 2
Fore
SplineSet
172 -205 m 1
 56 -205 l 1
 56 -146 l 1
 172 -146 l 1
 172 -205 l 1
EndSplineSet
EndChar

StartChar: uni00B2
Encoding: 178 178 178
Width: 236
Flags: HW
LayerCount: 2
Fore
SplineSet
172 -205 m 1
 56 -205 l 1
 56 -146 l 1
 172 -146 l 1
 172 -205 l 1
EndSplineSet
EndChar

StartChar: uni00B3
Encoding: 179 179 179
Width: 236
Flags: HW
LayerCount: 2
Fore
SplineSet
172 -205 m 1
 56 -205 l 1
 56 -146 l 1
 172 -146 l 1
 172 -205 l 1
EndSplineSet
EndChar

StartChar: acute
Encoding: 180 180 180
Width: 236
Flags: HW
LayerCount: 2
Fore
SplineSet
172 -205 m 1
 56 -205 l 1
 56 -146 l 1
 172 -146 l 1
 172 -205 l 1
EndSplineSet
EndChar

StartChar: mu
Encoding: 181 181 181
Width: 236
Flags: HW
LayerCount: 2
Fore
SplineSet
172 -205 m 1
 56 -205 l 1
 56 -146 l 1
 172 -146 l 1
 172 -205 l 1
EndSplineSet
EndChar

StartChar: paragraph
Encoding: 182 182 182
Width: 236
Flags: HW
LayerCount: 2
Fore
SplineSet
172 -205 m 1
 56 -205 l 1
 56 -146 l 1
 172 -146 l 1
 172 -205 l 1
EndSplineSet
EndChar

StartChar: periodcentered
Encoding: 183 183 183
Width: 236
Flags: HW
LayerCount: 2
Fore
SplineSet
172 -205 m 1
 56 -205 l 1
 56 -146 l 1
 172 -146 l 1
 172 -205 l 1
EndSplineSet
EndChar

StartChar: cedilla
Encoding: 184 184 184
Width: 236
Flags: HW
LayerCount: 2
Fore
SplineSet
172 -205 m 1
 56 -205 l 1
 56 -146 l 1
 172 -146 l 1
 172 -205 l 1
EndSplineSet
EndChar

StartChar: uni00B9
Encoding: 185 185 185
Width: 236
Flags: HW
LayerCount: 2
Fore
SplineSet
172 -205 m 1
 56 -205 l 1
 56 -146 l 1
 172 -146 l 1
 172 -205 l 1
EndSplineSet
EndChar

StartChar: ordmasculine
Encoding: 186 186 186
Width: 236
Flags: HW
LayerCount: 2
Fore
SplineSet
172 -205 m 1
 56 -205 l 1
 56 -146 l 1
 172 -146 l 1
 172 -205 l 1
EndSplineSet
EndChar

StartChar: guillemotright
Encoding: 187 187 187
Width: 236
Flags: HW
LayerCount: 2
Fore
SplineSet
172 -205 m 1
 56 -205 l 1
 56 -146 l 1
 172 -146 l 1
 172 -205 l 1
EndSplineSet
EndChar

StartChar: onequarter
Encoding: 188 188 188
Width: 236
Flags: HW
LayerCount: 2
Fore
SplineSet
172 -205 m 1
 56 -205 l 1
 56 -146 l 1
 172 -146 l 1
 172 -205 l 1
EndSplineSet
EndChar

StartChar: onehalf
Encoding: 189 189 189
Width: 236
Flags: HW
LayerCount: 2
Fore
SplineSet
172 -205 m 1
 56 -205 l 1
 56 -146 l 1
 172 -146 l 1
 172 -205 l 1
EndSplineSet
EndChar

StartChar: threequarters
Encoding: 190 190 190
Width: 236
Flags: HW
LayerCount: 2
Fore
SplineSet
172 -205 m 1
 56 -205 l 1
 56 -146 l 1
 172 -146 l 1
 172 -205 l 1
EndSplineSet
EndChar

StartChar: questiondown
Encoding: 191 191 191
Width: 236
Flags: HW
LayerCount: 2
Fore
SplineSet
172 -205 m 1
 56 -205 l 1
 56 -146 l 1
 172 -146 l 1
 172 -205 l 1
EndSplineSet
EndChar

StartChar: Agrave
Encoding: 192 192 192
Width: 236
Flags: HW
LayerCount: 2
Fore
SplineSet
172 -205 m 1
 56 -205 l 1
 56 -146 l 1
 172 -146 l 1
 172 -205 l 1
EndSplineSet
EndChar

StartChar: Aacute
Encoding: 193 193 193
Width: 236
Flags: HW
LayerCount: 2
Fore
SplineSet
172 -205 m 1
 56 -205 l 1
 56 -146 l 1
 172 -146 l 1
 172 -205 l 1
EndSplineSet
EndChar

StartChar: Acircumflex
Encoding: 194 194 194
Width: 236
Flags: HW
LayerCount: 2
Fore
SplineSet
172 -205 m 1
 56 -205 l 1
 56 -146 l 1
 172 -146 l 1
 172 -205 l 1
EndSplineSet
EndChar

StartChar: Atilde
Encoding: 195 195 195
Width: 236
Flags: HW
LayerCount: 2
Fore
SplineSet
172 -205 m 1
 56 -205 l 1
 56 -146 l 1
 172 -146 l 1
 172 -205 l 1
EndSplineSet
EndChar

StartChar: Adieresis
Encoding: 196 196 196
Width: 236
Flags: HW
LayerCount: 2
Fore
SplineSet
172 -205 m 1
 56 -205 l 1
 56 -146 l 1
 172 -146 l 1
 172 -205 l 1
EndSplineSet
EndChar

StartChar: Aring
Encoding: 197 197 197
Width: 236
Flags: HW
LayerCount: 2
Fore
SplineSet
172 -205 m 1
 56 -205 l 1
 56 -146 l 1
 172 -146 l 1
 172 -205 l 1
EndSplineSet
EndChar

StartChar: AE
Encoding: 198 198 198
Width: 236
Flags: HW
LayerCount: 2
Fore
SplineSet
172 -205 m 1
 56 -205 l 1
 56 -146 l 1
 172 -146 l 1
 172 -205 l 1
EndSplineSet
EndChar

StartChar: Ccedilla
Encoding: 199 199 199
Width: 236
Flags: HW
LayerCount: 2
Fore
SplineSet
172 -205 m 1
 56 -205 l 1
 56 -146 l 1
 172 -146 l 1
 172 -205 l 1
EndSplineSet
EndChar

StartChar: Egrave
Encoding: 200 200 200
Width: 236
Flags: HW
LayerCount: 2
Fore
SplineSet
172 -205 m 1
 56 -205 l 1
 56 -146 l 1
 172 -146 l 1
 172 -205 l 1
EndSplineSet
EndChar

StartChar: Eacute
Encoding: 201 201 201
Width: 236
Flags: HW
LayerCount: 2
Fore
SplineSet
172 -205 m 1
 56 -205 l 1
 56 -146 l 1
 172 -146 l 1
 172 -205 l 1
EndSplineSet
EndChar

StartChar: Ecircumflex
Encoding: 202 202 202
Width: 236
Flags: HW
LayerCount: 2
Fore
SplineSet
172 -205 m 1
 56 -205 l 1
 56 -146 l 1
 172 -146 l 1
 172 -205 l 1
EndSplineSet
EndChar

StartChar: Edieresis
Encoding: 203 203 203
Width: 236
Flags: HW
LayerCount: 2
Fore
SplineSet
172 -205 m 1
 56 -205 l 1
 56 -146 l 1
 172 -146 l 1
 172 -205 l 1
EndSplineSet
EndChar

StartChar: Igrave
Encoding: 204 204 204
Width: 236
Flags: HW
LayerCount: 2
Fore
SplineSet
172 -205 m 1
 56 -205 l 1
 56 -146 l 1
 172 -146 l 1
 172 -205 l 1
EndSplineSet
EndChar

StartChar: Iacute
Encoding: 205 205 205
Width: 236
Flags: HW
LayerCount: 2
Fore
SplineSet
172 -205 m 1
 56 -205 l 1
 56 -146 l 1
 172 -146 l 1
 172 -205 l 1
EndSplineSet
EndChar

StartChar: Icircumflex
Encoding: 206 206 206
Width: 236
Flags: HW
LayerCount: 2
Fore
SplineSet
172 -205 m 1
 56 -205 l 1
 56 -146 l 1
 172 -146 l 1
 172 -205 l 1
EndSplineSet
EndChar

StartChar: Idieresis
Encoding: 207 207 207
Width: 236
Flags: HW
LayerCount: 2
Fore
SplineSet
172 -205 m 1
 56 -205 l 1
 56 -146 l 1
 172 -146 l 1
 172 -205 l 1
EndSplineSet
EndChar

StartChar: Eth
Encoding: 208 208 208
Width: 236
Flags: HW
LayerCount: 2
Fore
SplineSet
172 -205 m 1
 56 -205 l 1
 56 -146 l 1
 172 -146 l 1
 172 -205 l 1
EndSplineSet
EndChar

StartChar: Ntilde
Encoding: 209 209 209
Width: 236
Flags: HW
LayerCount: 2
Fore
SplineSet
172 -205 m 1
 56 -205 l 1
 56 -146 l 1
 172 -146 l 1
 172 -205 l 1
EndSplineSet
EndChar

StartChar: Ograve
Encoding: 210 210 210
Width: 236
Flags: HW
LayerCount: 2
Fore
SplineSet
172 -205 m 1
 56 -205 l 1
 56 -146 l 1
 172 -146 l 1
 172 -205 l 1
EndSplineSet
EndChar

StartChar: Oacute
Encoding: 211 211 211
Width: 236
Flags: HW
LayerCount: 2
Fore
SplineSet
172 -205 m 1
 56 -205 l 1
 56 -146 l 1
 172 -146 l 1
 172 -205 l 1
EndSplineSet
EndChar

StartChar: Ocircumflex
Encoding: 212 212 212
Width: 236
Flags: HW
LayerCount: 2
Fore
SplineSet
172 -205 m 1
 56 -205 l 1
 56 -146 l 1
 172 -146 l 1
 172 -205 l 1
EndSplineSet
EndChar

StartChar: Otilde
Encoding: 213 213 213
Width: 236
Flags: HW
LayerCount: 2
Fore
SplineSet
172 -205 m 1
 56 -205 l 1
 56 -146 l 1
 172 -146 l 1
 172 -205 l 1
EndSplineSet
EndChar

StartChar: Odieresis
Encoding: 214 214 214
Width: 236
Flags: HW
LayerCount: 2
Fore
SplineSet
172 -205 m 1
 56 -205 l 1
 56 -146 l 1
 172 -146 l 1
 172 -205 l 1
EndSplineSet
EndChar

StartChar: multiply
Encoding: 215 215 215
Width: 236
Flags: HW
LayerCount: 2
Fore
SplineSet
172 -205 m 1
 56 -205 l 1
 56 -146 l 1
 172 -146 l 1
 172 -205 l 1
EndSplineSet
EndChar

StartChar: Oslash
Encoding: 216 216 216
Width: 236
Flags: HW
LayerCount: 2
Fore
SplineSet
172 -205 m 1
 56 -205 l 1
 56 -146 l 1
 172 -146 l 1
 172 -205 l 1
EndSplineSet
EndChar

StartChar: Ugrave
Encoding: 217 217 217
Width: 236
Flags: HW
LayerCount: 2
Fore
SplineSet
172 -205 m 1
 56 -205 l 1
 56 -146 l 1
 172 -146 l 1
 172 -205 l 1
EndSplineSet
EndChar

StartChar: Uacute
Encoding: 218 218 218
Width: 236
Flags: HW
LayerCount: 2
Fore
SplineSet
172 -205 m 1
 56 -205 l 1
 56 -146 l 1
 172 -146 l 1
 172 -205 l 1
EndSplineSet
EndChar

StartChar: Ucircumflex
Encoding: 219 219 219
Width: 236
Flags: HW
LayerCount: 2
Fore
SplineSet
172 -205 m 1
 56 -205 l 1
 56 -146 l 1
 172 -146 l 1
 172 -205 l 1
EndSplineSet
EndChar

StartChar: Udieresis
Encoding: 220 220 220
Width: 236
Flags: HW
LayerCount: 2
Fore
SplineSet
172 -205 m 1
 56 -205 l 1
 56 -146 l 1
 172 -146 l 1
 172 -205 l 1
EndSplineSet
EndChar

StartChar: Yacute
Encoding: 221 221 221
Width: 236
Flags: HW
LayerCount: 2
Fore
SplineSet
172 -205 m 1
 56 -205 l 1
 56 -146 l 1
 172 -146 l 1
 172 -205 l 1
EndSplineSet
EndChar

StartChar: Thorn
Encoding: 222 222 222
Width: 236
Flags: HW
LayerCount: 2
Fore
SplineSet
172 -205 m 1
 56 -205 l 1
 56 -146 l 1
 172 -146 l 1
 172 -205 l 1
EndSplineSet
EndChar

StartChar: germandbls
Encoding: 223 223 223
Width: 236
Flags: HW
LayerCount: 2
Fore
SplineSet
172 -205 m 1
 56 -205 l 1
 56 -146 l 1
 172 -146 l 1
 172 -205 l 1
EndSplineSet
EndChar

StartChar: agrave
Encoding: 224 224 224
Width: 236
Flags: HW
LayerCount: 2
Fore
SplineSet
172 -205 m 1
 56 -205 l 1
 56 -146 l 1
 172 -146 l 1
 172 -205 l 1
EndSplineSet
EndChar

StartChar: aacute
Encoding: 225 225 225
Width: 236
Flags: HW
LayerCount: 2
Fore
SplineSet
172 -205 m 1
 56 -205 l 1
 56 -146 l 1
 172 -146 l 1
 172 -205 l 1
EndSplineSet
EndChar

StartChar: acircumflex
Encoding: 226 226 226
Width: 236
Flags: HW
LayerCount: 2
Fore
SplineSet
172 -205 m 1
 56 -205 l 1
 56 -146 l 1
 172 -146 l 1
 172 -205 l 1
EndSplineSet
EndChar

StartChar: atilde
Encoding: 227 227 227
Width: 236
Flags: HW
LayerCount: 2
Fore
SplineSet
172 -205 m 1
 56 -205 l 1
 56 -146 l 1
 172 -146 l 1
 172 -205 l 1
EndSplineSet
EndChar

StartChar: adieresis
Encoding: 228 228 228
Width: 236
Flags: HW
LayerCount: 2
Fore
SplineSet
172 -205 m 1
 56 -205 l 1
 56 -146 l 1
 172 -146 l 1
 172 -205 l 1
EndSplineSet
EndChar

StartChar: aring
Encoding: 229 229 229
Width: 236
Flags: HW
LayerCount: 2
Fore
SplineSet
172 -205 m 1
 56 -205 l 1
 56 -146 l 1
 172 -146 l 1
 172 -205 l 1
EndSplineSet
EndChar

StartChar: ae
Encoding: 230 230 230
Width: 236
Flags: HW
LayerCount: 2
Fore
SplineSet
172 -205 m 1
 56 -205 l 1
 56 -146 l 1
 172 -146 l 1
 172 -205 l 1
EndSplineSet
EndChar

StartChar: ccedilla
Encoding: 231 231 231
Width: 236
Flags: HW
LayerCount: 2
Fore
SplineSet
172 -205 m 1
 56 -205 l 1
 56 -146 l 1
 172 -146 l 1
 172 -205 l 1
EndSplineSet
EndChar

StartChar: egrave
Encoding: 232 232 232
Width: 236
Flags: HW
LayerCount: 2
Fore
SplineSet
172 -205 m 1
 56 -205 l 1
 56 -146 l 1
 172 -146 l 1
 172 -205 l 1
EndSplineSet
EndChar

StartChar: eacute
Encoding: 233 233 233
Width: 236
Flags: HW
LayerCount: 2
Fore
SplineSet
172 -205 m 1
 56 -205 l 1
 56 -146 l 1
 172 -146 l 1
 172 -205 l 1
EndSplineSet
EndChar

StartChar: ecircumflex
Encoding: 234 234 234
Width: 236
Flags: HW
LayerCount: 2
Fore
SplineSet
172 -205 m 1
 56 -205 l 1
 56 -146 l 1
 172 -146 l 1
 172 -205 l 1
EndSplineSet
EndChar

StartChar: edieresis
Encoding: 235 235 235
Width: 236
Flags: HW
LayerCount: 2
Fore
SplineSet
172 -205 m 1
 56 -205 l 1
 56 -146 l 1
 172 -146 l 1
 172 -205 l 1
EndSplineSet
EndChar

StartChar: igrave
Encoding: 236 236 236
Width: 236
Flags: HW
LayerCount: 2
Fore
SplineSet
172 -205 m 1
 56 -205 l 1
 56 -146 l 1
 172 -146 l 1
 172 -205 l 1
EndSplineSet
EndChar

StartChar: iacute
Encoding: 237 237 237
Width: 236
Flags: HW
LayerCount: 2
Fore
SplineSet
172 -205 m 1
 56 -205 l 1
 56 -146 l 1
 172 -146 l 1
 172 -205 l 1
EndSplineSet
EndChar

StartChar: icircumflex
Encoding: 238 238 238
Width: 236
Flags: HW
LayerCount: 2
Fore
SplineSet
172 -205 m 1
 56 -205 l 1
 56 -146 l 1
 172 -146 l 1
 172 -205 l 1
EndSplineSet
EndChar

StartChar: idieresis
Encoding: 239 239 239
Width: 236
Flags: HW
LayerCount: 2
Fore
SplineSet
172 -205 m 1
 56 -205 l 1
 56 -146 l 1
 172 -146 l 1
 172 -205 l 1
EndSplineSet
EndChar

StartChar: eth
Encoding: 240 240 240
Width: 236
Flags: HW
LayerCount: 2
Fore
SplineSet
172 -205 m 1
 56 -205 l 1
 56 -146 l 1
 172 -146 l 1
 172 -205 l 1
EndSplineSet
EndChar

StartChar: ntilde
Encoding: 241 241 241
Width: 236
Flags: HW
LayerCount: 2
Fore
SplineSet
172 -205 m 1
 56 -205 l 1
 56 -146 l 1
 172 -146 l 1
 172 -205 l 1
EndSplineSet
EndChar

StartChar: ograve
Encoding: 242 242 242
Width: 236
Flags: HW
LayerCount: 2
Fore
SplineSet
172 -205 m 1
 56 -205 l 1
 56 -146 l 1
 172 -146 l 1
 172 -205 l 1
EndSplineSet
EndChar

StartChar: oacute
Encoding: 243 243 243
Width: 236
Flags: HW
LayerCount: 2
Fore
SplineSet
172 -205 m 1
 56 -205 l 1
 56 -146 l 1
 172 -146 l 1
 172 -205 l 1
EndSplineSet
EndChar

StartChar: ocircumflex
Encoding: 244 244 244
Width: 236
Flags: HW
LayerCount: 2
Fore
SplineSet
172 -205 m 1
 56 -205 l 1
 56 -146 l 1
 172 -146 l 1
 172 -205 l 1
EndSplineSet
EndChar

StartChar: otilde
Encoding: 245 245 245
Width: 236
Flags: HW
LayerCount: 2
Fore
SplineSet
172 -205 m 1
 56 -205 l 1
 56 -146 l 1
 172 -146 l 1
 172 -205 l 1
EndSplineSet
EndChar

StartChar: odieresis
Encoding: 246 246 246
Width: 236
Flags: HW
LayerCount: 2
Fore
SplineSet
172 -205 m 1
 56 -205 l 1
 56 -146 l 1
 172 -146 l 1
 172 -205 l 1
EndSplineSet
EndChar

StartChar: divide
Encoding: 247 247 247
Width: 236
Flags: HW
LayerCount: 2
Fore
SplineSet
172 -205 m 1
 56 -205 l 1
 56 -146 l 1
 172 -146 l 1
 172 -205 l 1
EndSplineSet
EndChar

StartChar: oslash
Encoding: 248 248 248
Width: 236
Flags: HW
LayerCount: 2
Fore
SplineSet
172 -205 m 1
 56 -205 l 1
 56 -146 l 1
 172 -146 l 1
 172 -205 l 1
EndSplineSet
EndChar

StartChar: ugrave
Encoding: 249 249 249
Width: 236
Flags: HW
LayerCount: 2
Fore
SplineSet
172 -205 m 1
 56 -205 l 1
 56 -146 l 1
 172 -146 l 1
 172 -205 l 1
EndSplineSet
EndChar

StartChar: uacute
Encoding: 250 250 250
Width: 236
Flags: HW
LayerCount: 2
Fore
SplineSet
172 -205 m 1
 56 -205 l 1
 56 -146 l 1
 172 -146 l 1
 172 -205 l 1
EndSplineSet
EndChar

StartChar: ucircumflex
Encoding: 251 251 251
Width: 236
Flags: HW
LayerCount: 2
Fore
SplineSet
172 -205 m 1
 56 -205 l 1
 56 -146 l 1
 172 -146 l 1
 172 -205 l 1
EndSplineSet
EndChar

StartChar: udieresis
Encoding: 252 252 252
Width: 236
Flags: HW
LayerCount: 2
Fore
SplineSet
172 -205 m 1
 56 -205 l 1
 56 -146 l 1
 172 -146 l 1
 172 -205 l 1
EndSplineSet
EndChar

StartChar: yacute
Encoding: 253 253 253
Width: 236
Flags: HW
LayerCount: 2
Fore
SplineSet
172 -205 m 1
 56 -205 l 1
 56 -146 l 1
 172 -146 l 1
 172 -205 l 1
EndSplineSet
EndChar

StartChar: thorn
Encoding: 254 254 254
Width: 236
Flags: HW
LayerCount: 2
Fore
SplineSet
172 -205 m 1
 56 -205 l 1
 56 -146 l 1
 172 -146 l 1
 172 -205 l 1
EndSplineSet
EndChar

StartChar: ydieresis
Encoding: 255 255 255
Width: 236
Flags: HW
LayerCount: 2
Fore
SplineSet
172 -205 m 1
 56 -205 l 1
 56 -146 l 1
 172 -146 l 1
 172 -205 l 1
EndSplineSet
EndChar
